# xmcd
#
# Track frame offsets: 
#        150
#        12780
#        28788
#        46479
#        62183
#        79994
#        97458
#        110836
#        132322
#        149268
#        168051
#        187817
#
# Disc length: 2707 seconds
#
# Revision: 0
# Processed by: cddbd v1.5.2PL0 Copyright (c) Steve Scherf et al.
# Submitted via: ExactAudioCopy v0.95b3
#
DISCID=a80a910c
DTITLE=Klaidonis - Tik âtri aizskrien laiks...
DYEAR=2005
DGENRE=Country
TTITLE0=Muzikants
TTITLE1=Tik âtri aizskrien laiks...
TTITLE2=Mazâ dvçselîte
TTITLE3=Dienasgrâmata
TTITLE4=Nav tâ vçrts
TTITLE5=Tçva tçvs
TTITLE6=Hei, draudziò!
TTITLE7=Kâ rudenîgs lietus...
TTITLE8=Pagaidâm
TTITLE9=Matiolu smarþas
TTITLE10=Pirtsnamiòð
TTITLE11=Manas mâjas
EXTD=
EXTT0=
EXTT1=
EXTT2=
EXTT3=
EXTT4=
EXTT5=
EXTT6=
EXTT7=
EXTT8=
EXTT9=
EXTT10=
EXTT11=
PLAYORDER=
